<?xml version="1.0" encoding="UTF-8" standalone="no"?>
<!-- Created with Inkscape (http://www.inkscape.org/) -->

<svg
   xmlns:dc="http://purl.org/dc/elements/1.1/"
   xmlns:cc="http://creativecommons.org/ns#"
   xmlns:rdf="http://www.w3.org/1999/02/22-rdf-syntax-ns#"
   xmlns:svg="http://www.w3.org/2000/svg"
   xmlns="http://www.w3.org/2000/svg"
   xmlns:sodipodi="http://sodipodi.sourceforge.net/DTD/sodipodi-0.dtd"
   xmlns:inkscape="http://www.inkscape.org/namespaces/inkscape"
   id="svg32847"
   sodipodi:docname="paper.svg"
   viewBox="0 0 179.91581 160.00798"
   version="1.1"
   inkscape:version="0.92.5 (2060ec1f9f, 2020-04-08)"
   width="179.91582"
   height="160.00798">
  <defs
     id="defs222" />
  <sodipodi:namedview
     id="namedview35"
     bordercolor="#666666"
     inkscape:pageshadow="2"
     guidetolerance="10"
     pagecolor="#ffffff"
     gridtolerance="10"
     inkscape:window-maximized="1"
     inkscape:zoom="1.2685914"
     objecttolerance="10"
     borderopacity="1"
     inkscape:current-layer="svg32847"
     inkscape:cx="153.4943"
     inkscape:cy="171.35753"
     inkscape:window-y="0"
     inkscape:window-x="0"
     inkscape:window-width="1920"
     showgrid="false"
     inkscape:pageopacity="0"
     inkscape:window-height="1013" />
  <title
     id="title32935">Rock-Paper-Scissors</title>
  <g
     transform="matrix(0.62977,0.77678,-0.77678,0.62977,1742.2141,-705.47416)"
     id="g5439">
    <g
       transform="matrix(1.2311,0,0,1.2311,-513.75,545.62)"
       id="g3915-6-1-6-3-8-9-4">
      <path
         d="m 89.471,1065.9 c 3.7268,6.1263 -0.48379,10.049 -6.16,12.947 -8.0302,4.0988 -27.898,2.1019 -34.7,-2.0136 -6.2427,-3.777 -9.0128,-9.3495 -6.0403,-14.184"
         inkscape:connector-curvature="0"
         style="fill:#ffffff;stroke:#000000;stroke-width:4.06139994;stroke-linecap:round;stroke-linejoin:round"
         id="path3894-6-1-0-5-5-2-9" />
      <path
         d="m -3.604,1025.6 c -4.0486,8.0173 9.817,12.99 25.017,15.798 5.9022,1.0905 17.507,20.951 31.305,25.697 8.9767,3.088 29.326,3.8464 36.494,-1.431 12.273,-9.0365 18.48,-20.686 21.285,-35.088 0.99446,-5.1051 1.2473,-10.936 0.95737,-15.702 -0.95222,-15.651 12.951,-53.666 11.882,-57.677 -2.9683,-11.145 -15.873,-4.6143 -18.563,2.5506 -1.303,3.4704 -13.856,27.808 -13.93,23.149 -0.18216,-11.445 0.9768,-25.243 2.8156,-38.21 2.7516,-19.404 -24.341,-14.513 -26.731,3.6823 -1.1198,8.5239 -3.0565,15.509 -5.109,34.59 -3.1459,-10.276 -8.4312,-25.036 -10.205,-35.24 -2.9255,-16.826 -27.057,-6.7396 -23.048,13.758 2.7304,13.959 10.401,38.572 9.2013,62.827 -9.4248,-7.8585 -29.16,-22.888 -41.372,1.2939 z"
         inkscape:connector-curvature="0"
         style="fill:#ffffff;stroke:#000000;stroke-width:4.06139994;stroke-linecap:round;stroke-linejoin:round"
         id="path3112-2-8-6-8-2-9-8" />
      <path
         d="m 59.576,982.54 c 3.0369,12.661 7.4917,18.465 9.1495,21.42 -2.1204,-7.8868 -2.8679,-9.8306 -4.494,-18.415 -0.2757,-1.4554 -0.35672,-3.1981 -0.11641,-5.3248 z"
         inkscape:connector-curvature="0"
         style="color:#000000;text-indent:0;text-transform:none;fill:#000000"
         id="path3882-6-1-33-9-9-7-9" />
      <path
         d="m 88.815,982.97 c 0.12674,7.633 2.1115,16.807 4.9714,22.534 -0.13108,-4.1659 -0.41858,-11.323 -0.74166,-17.651 -0.08762,-1.7164 0.25366,-3.2704 1.6609,-5.2711 -1.9266,0.5414 -3.9113,0.38456 -5.8906,0.3884 z"
         inkscape:connector-curvature="0"
         style="color:#000000;text-indent:0;text-transform:none;fill:#000000"
         id="path3884-6-1-2-9-6-6-0" />
      <path
         d="m 79.642,1058.3 c 4.0369,-9.6783 3.976,-12.465 5.1951,-17.405"
         inkscape:connector-curvature="0"
         style="fill:none;stroke:#000000;stroke-width:4.06139994;stroke-linecap:round;stroke-linejoin:round"
         id="path3886-8-5-4-3-7-0-8" />
      <path
         d="m 70.26,1059 c 1.6922,-11.475 1.4242,-17.152 1.8555,-24.898"
         inkscape:connector-curvature="0"
         style="fill:none;stroke:#000000;stroke-width:4.06139994;stroke-linecap:round;stroke-linejoin:round"
         id="path3888-4-4-9-8-4-7-4" />
      <path
         d="m 59.041,1059.5 c 0.0971,-7.9806 -0.59887,-11.754 -1.049,-16.831"
         inkscape:connector-curvature="0"
         style="fill:none;stroke:#000000;stroke-width:4.06139994;stroke-linecap:round;stroke-linejoin:round"
         id="path3890-1-8-5-1-8-9-7" />
    </g>
  </g>
  <metadata
     id="metadata33">
    <rdf:RDF>
      <cc:Work>
        <dc:format>image/svg+xml</dc:format>
        <dc:type
           rdf:resource="http://purl.org/dc/dcmitype/StillImage" />
        <cc:license
           rdf:resource="http://creativecommons.org/licenses/publicdomain/" />
        <dc:publisher>
          <cc:Agent
             rdf:about="http://openclipart.org/">
            <dc:title>Openclipart</dc:title>
          </cc:Agent>
        </dc:publisher>
        <dc:title>Rock-Paper-Scissors</dc:title>
      </cc:Work>
      <cc:License
         rdf:about="http://creativecommons.org/licenses/publicdomain/">
        <cc:permits
           rdf:resource="http://creativecommons.org/ns#Reproduction" />
        <cc:permits
           rdf:resource="http://creativecommons.org/ns#Distribution" />
        <cc:permits
           rdf:resource="http://creativecommons.org/ns#DerivativeWorks" />
      </cc:License>
    </rdf:RDF>
  </metadata>
</svg>
